<svg xmlns="http://www.w3.org/2000/svg" viewBox="0 0 750.18 463.4"><defs><style>.cls-1{opacity:0.1;}.cls-2,.cls-3{fill:#455a64;}.cls-3{fill-rule:evenodd;}</style></defs><title>Ресурс 2</title><g id="Слой_2" data-name="Слой 2"><g id="Слой_2-2" data-name="Слой 2"><g class="cls-1"><path class="cls-2" d="M75.42,346.15q0,4.31-4.31,4.31H27.89q-15.74,0-15.74,6.29v33q0,4.73,7,6.6,3.07.83,10.49.83H70.85q4.26,0,4.26,4.31v1.35q0,4.31-4.26,4.31H29.61a91,91,0,0,1-10.54-.41,29.28,29.28,0,0,1-9.92-3.17Q0,398.66,0,389.93V356.8q0-6.23,5.82-10.7a26,26,0,0,1,11.64-4.94,65.11,65.11,0,0,1,10.23-.62H71.11q4.31,0,4.31,4.26Z"/><path class="cls-2" d="M178.05,400.94a8.21,8.21,0,0,1,.16,1.61,5.64,5.64,0,0,1-1.81,4.36,6.49,6.49,0,0,1-4.56,1.66q-2.85,0-5.13-3.35L156,389.57H104.72L94,405.26a5.08,5.08,0,0,1-1,1.4,3.85,3.85,0,0,1-2.75,1.09,5.75,5.75,0,0,1-5.15-2.49,3.77,3.77,0,0,1-.73-2.08,2.46,2.46,0,0,1,.21-1.09l38.38-58.69a7.88,7.88,0,0,1,7.43-3.59q5.87.21,7,3.59Zm-29.24-21.4-18.43-27.17-18.55,27.17Z"/><path class="cls-2" d="M269.88,400q0,4.62-2.39,6.28-1.72,1.2-5.67,1.19a6.73,6.73,0,0,1-3.69-1.53q-.31-.2-1.87-1.53l-56.65-48.23v46.66q0,4.31-4.31,4.31h-3.58q-4.26,0-4.26-4.31V344.9q0-2.23,3.12-4.05a6,6,0,0,1,3.12-.83,11.34,11.34,0,0,1,5.56,1.76,16.57,16.57,0,0,1,2.55,1.77l55.94,47.63V344.8q0-4.26,4.31-4.26h3.53q4.31,0,4.31,4.26Z"/><path class="cls-2" d="M373.61,400.94a8.19,8.19,0,0,1,.16,1.61,5.64,5.64,0,0,1-1.81,4.36,6.49,6.49,0,0,1-4.56,1.66q-2.85,0-5.13-3.35l-10.75-15.66H300.28l-10.76,15.69a5.09,5.09,0,0,1-1,1.4,3.85,3.85,0,0,1-2.75,1.09,5.76,5.76,0,0,1-5.15-2.49,3.77,3.77,0,0,1-.73-2.08,2.45,2.45,0,0,1,.21-1.09L318.5,343.4a7.88,7.88,0,0,1,7.43-3.59q5.87.21,7,3.59Zm-29.24-21.4-18.43-27.17-18.55,27.17Z"/><path class="cls-2" d="M465.13,347.24l-39.37,56a9.8,9.8,0,0,1-2.86,3,9,9,0,0,1-9.92-.88,9.81,9.81,0,0,1-1.76-2l-39.42-56a5.83,5.83,0,0,1-1.25-3.32q0-3.38,4.73-3.37h1.35q4.52,0,5.82,1.81l36.08,51.56,35.88-51.57q1.3-1.81,5.72-1.8H461a2.42,2.42,0,0,1,.57.05q4.73.41,4.73,3.4A5.73,5.73,0,0,1,465.13,347.24Z"/><path class="cls-2" d="M557,400.94a8.19,8.19,0,0,1,.16,1.61,5.64,5.64,0,0,1-1.81,4.36,6.49,6.49,0,0,1-4.56,1.66q-2.85,0-5.13-3.35l-10.75-15.66H483.63l-10.76,15.69a5.09,5.09,0,0,1-1,1.4,3.86,3.86,0,0,1-2.75,1.09,5.76,5.76,0,0,1-5.15-2.49,3.77,3.77,0,0,1-.73-2.08,2.45,2.45,0,0,1,.21-1.09l38.38-58.69a7.88,7.88,0,0,1,7.43-3.59q5.87.21,7,3.59Zm-29.24-21.4-18.43-27.17-18.55,27.17Z"/><path class="cls-2" d="M648.64,365.41q0,8.47-8.59,12.73-7.13,3.53-18.37,3.53h-20l40.64,17.22c2.15.9,3.23,2.3,3.23,4.2q0,4.09-4.88,4a51.25,51.25,0,0,1-6.75-.36l-55.37-23.69v19.74q0,4.31-4.31,4.31h-3.58q-4.26,0-4.26-4.31v-58q0-4.26,4.26-4.26H619.5q11.38,0,18.7,3,10.44,4.21,10.44,13.87Zm-12.16.11v-8.41q0-6.65-17-6.65H578.52v21.3h43.11Q636.48,371.75,636.48,365.52Z"/><path class="cls-2" d="M750,400.94a8.19,8.19,0,0,1,.16,1.61,5.64,5.64,0,0,1-1.81,4.36,6.49,6.49,0,0,1-4.56,1.66q-2.85,0-5.13-3.35l-10.75-15.66H676.69l-10.76,15.69a5.08,5.08,0,0,1-1,1.4,3.85,3.85,0,0,1-2.75,1.09,5.76,5.76,0,0,1-5.15-2.49,3.77,3.77,0,0,1-.73-2.08,2.46,2.46,0,0,1,.21-1.09l38.38-58.69a7.88,7.88,0,0,1,7.43-3.59q5.87.21,7,3.59Zm-29.24-21.4-18.43-27.17L683.8,379.55Z"/></g><g class="cls-1"><path class="cls-2" d="M314.74,446.35h-8.41a4.71,4.71,0,0,0-.31-1.77,4.13,4.13,0,0,0-.73-1.16,3.67,3.67,0,0,0-2.86-1,5.16,5.16,0,0,0-3.7,1.26,7,7,0,0,0-1.57,2.5l-.46,2.06-.07,1.6a8,8,0,0,0,1.5,5.31,11.9,11.9,0,0,0,1.23,1.17,4.72,4.72,0,0,0,2.86.8,5,5,0,0,0,3.4-1.28,4.66,4.66,0,0,0,1.16-1.86H302v-5.29h12.63v14.11h-6.38V461.7l-1.18.44q-1.41.5-2.74.82a13.42,13.42,0,0,1-3.07.44,18.81,18.81,0,0,1-3.15-.25,18.38,18.38,0,0,1-2.16-.51l-.82-.27a9.06,9.06,0,0,1-2.54-1.54,13.05,13.05,0,0,1-2.18-2.48q-2.08-2.79-2.08-8.65a14,14,0,0,1,3.34-9.75,10.72,10.72,0,0,1,4.39-2.86,18.9,18.9,0,0,1,2.86-.73,19.51,19.51,0,0,1,3.28-.25,18.75,18.75,0,0,1,3.9.36,11.52,11.52,0,0,1,1.63.41,7.3,7.3,0,0,1,.7.3q.34.17.7.39a11.34,11.34,0,0,1,3.45,3.22l.87,1.57a7.53,7.53,0,0,1,.53,1.36Z"/><path class="cls-2" d="M344.11,462.71H336a5.56,5.56,0,0,1-.73-1.29l-.36-1.07-.17-1.53-.1-2.1v-.83a1.35,1.35,0,0,0-.2-.7,3.5,3.5,0,0,0-.49-.73,1.13,1.13,0,0,0-.83-.53l-1.69-.14h-3.27v8.92h-7.81V436.83h13.74q5,0,6.91,2.38a7.73,7.73,0,0,1,2,5.33,7,7,0,0,1-1.14,4.19,5.9,5.9,0,0,1-1.19,1.21l-.76.59.9.7a3.32,3.32,0,0,1,.7.8,7.38,7.38,0,0,1,.92,3l0,1.46v1.75c0,.42,0,.71,0,.85a4,4,0,0,0,.11.54l.3,1Zm-8.92-17.23a2.15,2.15,0,0,0-.76-1.8,5.12,5.12,0,0,0-2.38-.49h-3.9v4.53h4.08a4.15,4.15,0,0,0,2.2-.58A1.68,1.68,0,0,0,335.19,445.48Z"/><path class="cls-2" d="M374.42,449.77a15.66,15.66,0,0,1-3,9.38,9,9,0,0,1-4.42,3.17,20,20,0,0,1-3.06.8,19.15,19.15,0,0,1-3.35.29,16.41,16.41,0,0,1-6.12-1.1,10.12,10.12,0,0,1-4.37-3.19,15.58,15.58,0,0,1-3-9.35,21.12,21.12,0,0,1,.14-2.67,12.83,12.83,0,0,1,.56-2.29,13.74,13.74,0,0,1,2.25-4.39,10.05,10.05,0,0,1,4.37-3.18,15.89,15.89,0,0,1,2.94-.85,17.4,17.4,0,0,1,3.22-.29,21.35,21.35,0,0,1,3.36.25,15.78,15.78,0,0,1,3,.8,9.2,9.2,0,0,1,4.46,3.2A15.72,15.72,0,0,1,374.42,449.77ZM366,449.7a15.14,15.14,0,0,0-.23-2.92,5.26,5.26,0,0,0-.79-1.93,5.15,5.15,0,0,0-2.13-2l-1-.29-.7-.07h-.49l-1,0-1.16.36a5.36,5.36,0,0,0-2.83,4,18.6,18.6,0,0,0-.2,2.93l0,.8,0,.56a6.44,6.44,0,0,0,.24,1.58,8.57,8.57,0,0,0,.56,1.58l.16.31a2.67,2.67,0,0,0,.23.35,5,5,0,0,0,.63.83,3.77,3.77,0,0,0,1.4,1,7.66,7.66,0,0,0,1,.25,5.77,5.77,0,0,0,1,.08,4.33,4.33,0,0,0,3.17-1.09,6.87,6.87,0,0,0,1.65-2.61l.24-1,.19-1.05Z"/><path class="cls-2" d="M402.33,454.76a6.38,6.38,0,0,1-.2,1.43l-.63,1.67a5.78,5.78,0,0,1-.46.92,4.76,4.76,0,0,1-.77,1,12.29,12.29,0,0,1-2.13,1.84q-2.5,1.79-7.63,1.79a16.88,16.88,0,0,1-4.65-.6,7,7,0,0,1-3.37-1.63,9.76,9.76,0,0,1-3.15-4.68l-.17-.8-.21-1.21-.07-1.75V436.83h7.91V453a4.71,4.71,0,0,0,0,.59c0,.13.06.41.13.84a3.07,3.07,0,0,0,.65,1.35,4.37,4.37,0,0,0,6.08,0,6.87,6.87,0,0,0,.88-3.92v-15h7.91V452.7Z"/><path class="cls-2" d="M431.07,445.48q0,3.92-1.82,5.75a9.09,9.09,0,0,1-1.74,1.53,11.22,11.22,0,0,1-2.06,1l-1.36.34-1.26.1-1.91.16h-4.75v8.32h-7.91V436.83H422a10.91,10.91,0,0,1,6.08,1.86,5.5,5.5,0,0,1,2.21,2.61A10.52,10.52,0,0,1,431.07,445.48Zm-7.71-.1a4,4,0,0,0-.21-1.33,1.57,1.57,0,0,0-.7-.86,4.94,4.94,0,0,0-2.89-.63h-3.39v5.85h3.39a5.4,5.4,0,0,0,2.73-.61A2.54,2.54,0,0,0,423.36,445.38Z"/></g><g class="cls-1"><path class="cls-3" d="M371.27,65.26a31.1,31.1,0,0,1,9.67,11c1.94,4.26,3.69-.77,1-2.71-1.54-2.72-3.1-5.23-4.65-7.56-1.18-3.88-4.08-8.53-8.71-7.56-4.47,1.37-9.5,2.72-12.41,6.6a2.45,2.45,0,0,0,.77,1.56C361.4,65.07,366.44,63.7,371.27,65.26Z"/><path class="cls-3" d="M525,101.18c-.17.1-.25.25-.44.34-3.66,1.86-6.83,6.16-10.89,7.29a4.3,4.3,0,0,1-.93.56A4.79,4.79,0,0,1,509,111a5.36,5.36,0,0,1-1.93-.39,35.76,35.76,0,0,1-11-3c-6.06-2.57-12.07-1-17.88,1.38a23.91,23.91,0,0,0-12.31,12.39c-1,8.92-1.3,17.46,7.31,23.39,1.22.79,2.67,1.17,3.33,2.35,2.75,3.57-.16,8.82-3.24,9.8a6.89,6.89,0,0,1-1.65.15c-6.6,1.37-16.68-.43-22.38-5.4a18.13,18.13,0,0,1-4.1-3.31c-1.22-.65-2.45-1.32-3.7-2-10.28-5.84-24.25-9.1-36.32-10.07a84.41,84.41,0,0,0-16.14,2.3,33.36,33.36,0,0,1-23,.08c-9.67-8.12-10.45-22.46-7.56-34.08a30.11,30.11,0,0,1,6.41-6.77C372.24,115,397,102.63,397.6,86.56c-3.48,3.49-6.38,6.4-11,8.51-3.09,1.55-12.2-.38-8.71-4.44,2.54-2.14,4.27-4.07,4.27-7.36,7.17,0,11.62-11.23,17-16.64-1.56-11.83-11.63-21.9-23.24-24C366,27.1,342.61,30.21,328.09,32.53c-4.26.59-7.17-2.32-10.46-4.06C309.49,14.13,332.15,5,335.46,0c-23.25-.2-53.85,32.92-23.65,48-14.33.78-13.55,14.33,0,16.08-18,14-26.83,35.16-39.35,51.82-8,17.55-16.87,35.94-13.41,55.65a6.55,6.55,0,0,1,.08,1.72,5.66,5.66,0,0,1-.42,3.53,21.25,21.25,0,0,1,.57,4.32c.09,4.41-5.93,5.86-8.12,2.2-.43-.72-.92-1.42-1.39-2.11-2.27-2-4.91-3.38-6.61-6.08A22.58,22.58,0,0,0,240,171.2c-.15-.07-.3-.13-.45-.21-1.16-.68-2.37-1.77-3.64-2.67a19.53,19.53,0,0,0-6.35-.09c-.28.13-.55.29-.82.42-2.33,1.76-4.12,3.88-6.31,5.79-.66,18.48,1.84,37.86-3.56,54.84,5,9.45,9.11,19.91,10.46,30.41,8.34-2.38,13.76-10.54,15.11-18.76a47.5,47.5,0,0,0,.77-5.23c-7.35-2.88-10.83-11.13-3.1-14.42-.39-7.29-8.52-13.11-4.26-20.86,8.9,6.19,10.07,19.94,20.92,23.85,3.87,1.32,7-2.34,9.29-4.64,1,7.17,5.62,13.52,11.43,17.38-2.92,3.25-5,7.22-8.34,10.51-5.61,28.12-43.18,34.53-49,61.87,2.51,1.22,5.61-.25,7.93-.14-.19,2.42-3.29,5-1.74,7.1,7.16-.45,13.94-4.29,20.13-7.94,7.75-13,19-23.3,29.25-36.5,16.46,1.57,22.47-16,33.49-24.4,17.25-4.42,37.19-2.32,54.62-8.77a12.85,12.85,0,0,0,1.93,4.39c14.72.12,35.44,10.7,19,26.35-13.16,10.59-27.29,22.37-32.14,38.74,2.9,0,6-.73,9.09-.34,11.24-1,12.39-7.42,12.21-16,2.71-1.6,5.81-.14,7.94,1.25,8.92-14.42,21.49-26.6,32.53-38.47,0-5.92-8.52-7.92-7.94-14.14,1.16-4.71,4.06-8.73,6.4-12.94,39.12,2.18,79.38,46.76,50.54,82.7-.58,1.91-2.14,3.93-1.16,5.71,3.74,2,4.55.93,6.39-1.27,1.11-1.33,1.8-4.45,4.44-4.82-.37,2.35-1.92,6.16,1.74,7.12,3.88-1.13,8.15-.81,11.83-2.39-1.55-6.12,2.51-17.69-2.14-24.54,3.75-15.11-2.33-32.82-2.55-49.79a70.74,70.74,0,0,1-28.14-42.83c0-.21-.07-.4-.11-.6-2.58-7.36-2.9-15.46-2.94-23.37a7.42,7.42,0,0,1,.89-3.56,4.87,4.87,0,0,1,4.88-3.54c.13,0,.21.06.33.07a6,6,0,0,1,.94.05c.06,0,.09,0,.16,0h1a3.79,3.79,0,0,1,.5-.08c2.43-.14,4.88-.06,7.32,0,3.12,0,6.25,0,9.37,0a32.11,32.11,0,0,0,6.68-2.17c.88-.41,1.74-.85,2.67-1.24l4.32-3.85a22.35,22.35,0,0,0,1.4-4.93c0-.46.16-1.06.24-1.67-.4-2.14-1.16-3.18-1.73-4.83a29.49,29.49,0,0,0-3.68-3.62,11.38,11.38,0,0,1-1.47-.83,5.38,5.38,0,0,1-.82-.78c-.09-.08-.22-.14-.31-.22-3.73-1.69-7.49-3.8-10-6.53a4.82,4.82,0,0,1-1.43-1.7,4.74,4.74,0,0,1-1.85-4c0-.24.1-.42.12-.65a7,7,0,0,1,2.91-6.21c1.81-1.33,3.94-1.26,6-1.06.33,0,.68.1,1,.15l.18,0a7.36,7.36,0,0,1,2.75.86,7.27,7.27,0,0,0,1.31.8,4.83,4.83,0,0,1,2.88,2.06,6.45,6.45,0,0,1,.57.49c3.29,2.13,6.6,4,10.54,2.73a25,25,0,0,0,13.21-9.43c-.78-1.45-2.3.24-3.46,0a4.3,4.3,0,0,1-3.1-.58,17.63,17.63,0,0,0,10-3.38c1.69-1.42,3.61-2.6,4.91-4.34a60,60,0,0,0,3.12-10.48ZM336.34,31.76c10.26,7,28.28-5,34.09,9.48-1.56-.2-2.72.59-4.07.59-1.16-7.56-11-8.52-15.1-3.1C354,42,358,46.47,363.06,44c1.36-.2,2.32.77,3.69.57-3.88,3.29-8.34,7-10.85,11.24a2.81,2.81,0,0,0,1.35-.39c1.74-.59,2.73-2.71,4.47-3.49,5-5.23,13.15-9.48,19.93-5.23-2.51.39-5.81-.19-7.74,2.33-3.3,5.62,6.39,3.49,8.71,8.33,5,.59,2.33-6.19,1.56-8.33,7,2.71,14.71,13.16,10.65,20.53,0-1.75-2.14-4.64-4.07-2.89,1.93,6.18-4.46,9.28-5.62,14.7-6-4.25-5.42,4.07-9.48,5.81-2.52-3.09-3.3-7.94-7.16-11A32.31,32.31,0,0,0,355.9,72c-6.59.18-12.4,3.1-18.59,5a163.83,163.83,0,0,0-46.48,74.55c-1,7.56-3.49,14.54-6.2,21.5-.58-10.08-.19-21.5,3.29-31,4.45-12,9.11-24.2,16.08-35.23,9.87-18.41,27.3-32.74,47.05-36.8-1-2.72-5.42-4.46-4.06-8.33,1.93-5.61,8.91-9.1,10.85-14.91-4.66,0-15.3,1.55-13.75-6.78a2.15,2.15,0,0,0-1.74-.78c-3.88,5.43,6.57,10.09,2.89,16.47-2.13,12.59-14.72,23.42-26.34,24.79C307.68,60,341.17,51.13,335.19,32.72,335.58,32.53,336.14,32.33,336.34,31.76ZM362.87,41a23.15,23.15,0,0,1-3.49,1c-1.16-.59-1.74-1.74-2.72-2.53.19-1.54,1.93-1.35,2.92-2.13C361.72,37.37,362.48,39.11,362.87,41ZM303,36.6c-2.9-9.88,2.92-18.79,10.85-24-1,3.29-4.84,8.91-1.36,13,3.88,5.62,9.87,9.5,16.84,9.3,1.15,4.08.59,9.48-3.29,12.6-.58-.39-1.54,0-2.13-.59A20,20,0,0,1,303,36.6Zm-.2,19c.59-.39,1,.2,1.55,0,2.33,1.93,5.63.39,8.54.59,2.89.77,6.18.57,8.51-1.37-.77,2.91-4.66,4.85-6.59,7.56C311,60.22,304.38,60.6,302.83,55.57ZM277.47,225.14c-7.75-8-6.38-20.84-7-31.88-1.94-18,3.87-35.45,6.18-52.48a124.15,124.15,0,0,0-9.86,70.09c-1,2.33-1.16,5.08-3.49,6.73-1,.72-2.33.31-3.29,1-10.65-4.59-14.53-18.2-22.46-25.95-3.49,2.53-2.73,8.14-4.47,12a18.28,18.28,0,0,1-.37,16.46A24.6,24.6,0,0,1,230,243.94c-7.36-7.6-10.66-20.47-3.88-30.35.19-12-1.74-23.62-1.74-35.82,0-2.53,2.33-3.87,3.29-5.81,13.76-6.39,16.86,12.59,26.92,17.63,1.16,1.55,1.94,3.28,3.29,4.64,1.35-.18,1.94-1.15,2.71-2.12,1.55-3.29,1-7,1.35-10.45-.39-10.85-.19-21.7,1.94-32,11.42-29.42,24.59-59.64,49.37-80.37.58,8.33-2.91,16.85-4.06,25.38-18,26.52-31,56.54-27.12,90.63-2.14,12.2-2.71,25.76,1.35,37.36,0,1-.18,2.18-1.16,2.46A8,8,0,0,1,277.47,225.14Zm17.83,34.49c-5.84,7.45-11,10.16-15.12,7,5.82-.06,9.7-4.84,13.37-9,3.87-6.34,10.46-11.28,13-18.31-8.71,2.93-12.77,11.94-17.81,18.69-3.3,3.41-7.74,4.81-12,5.9C266.82,277.46,256,297.4,237,300.08c2.33-16.49,20.91-23.29,31.17-35.42,5.62-29.21,40.09-39.88,51.13-66.37-7.36,6.39-15.1,13.94-21.89,20.91-2.51-.84-5.41-1.53-6.19-4.51-6.78-47,11-100.25,55-124.45a38.81,38.81,0,0,1,13.18-1.75c-8.72,9.31-19.36,18.22-26.33,29.83-3.09,4.06-4.65,8.9-8.52,12.59-2.72,4.06-5.81,7.94-8.33,12,12.21-11.23,23.23-25.75,37.37-35.63-1.36,4.85-3.29,9.69-6.78,13.37-2.51,3.68-4.64,7.54-7.94,10.66C335,136.52,329,141,324.13,145.24c6-2.34,10.85-7.16,15.68-11.44,3.88-3.68,8.14-7,11.82-11.22-7,24.78-34.27,38.92-45.69,61.37,5.23-4.64,9.48-12,14.51-17,4.84-4.64,8.91-9.48,13.94-13.56,7.55-6.38,15.69-13.35,20-22.65,2.31,7-2.33,13.75-6,19.37-1.93,3.28-4.05,6.38-6.18,9.48-2.72,4.26-6.21,8.14-9.1,12,3.49-1.16,5.62-3.66,7.35-6.58,9.29-6.38,12.78-22.27,25-22.86,4.07,12.79,1.74,27.69,4.85,41.26-6,16.06-15.12,34.21-32.35,40.8,1.17-3.83,5-8.37,4.65-11.76-7.75,6-8.72,16-13.76,23.76C315.62,241,303.42,246.92,295.29,259.63ZM486,147a11.59,11.59,0,0,1,4.84,4.84c-2.71,16.66-25.37,13.74-37.57,9.68a10.1,10.1,0,0,0-4.27,6.21c-6,31.17,10.08,60.56,32.93,81.76-1.36,12.06,8.71,23.85,0,34.23.18,1.8-.38,3.5,0,5.23,8.32,5.88,2.51,15-5.41,16.67-1-1-2.54-.74-3.3-1.94C482,291,476.15,267.7,469,253.33,449.62,233.85,421.54,221.2,394,225c-11,3.18-21.5,7.43-32.33,11.07-11.05,2.57-24.22,8.26-35.26,4.62a29.42,29.42,0,0,0,6.59-4.66c33.9-1.3,76.3-18.47,83.26-56.53,1.35-3.29,2.73-6.39,2.73-10.08-4.27,7-7.76,14.72-13,21.3-10.46,17.63-30,27.78-49.39,30.94,16.47-18.35,23.43-43.13,14.34-65.59-.2-2.12,1.17-3.68,1.35-5.8,8.33-5.81,20.91-4.85,29.82-10.46,28.08-3.28,48.23,26.35,75.92,18.21C482.35,155.88,482.35,148.34,486,147Zm-16.08-18.21c-.76.38-1,1-1.55,1.35-4.05-2.7,0-8.91,2.33-11.8a25.71,25.71,0,0,1,11-7.36c2.7-.39,5.8.39,7.35,2.71C480.23,112.5,470.73,119.67,469.95,128.78Z"/><path class="cls-3" d="M422.77,147.36c-5.41-.76-10.46-3.28-16.06-3.1-4.85,1-9.88-.77-14.52,1,1.34,1.16,3.28,1,5,1.35,13.17-.59,27.7,5,34.66,17,6,18.39-4.45,38.53-18,51.25,7.15-2.07,11-9.63,15.49-14.26,0-.17.08-.19.13-.16,6.9-8.74,11.71-23.15,14.79-34.5C440.4,157.63,432.46,149.11,422.77,147.36Z"/></g></g></g></svg>