<svg xmlns="http://www.w3.org/2000/svg" viewBox="0 0 447.09 91.9"><defs><style>.cls-1,.cls-3{fill:#841618;}.cls-1,.cls-2{fill-rule:evenodd;}.cls-2{fill:#fff;}</style></defs><title>Ресурс 1</title><g id="Слой_2" data-name="Слой 2"><g id="Слой_2-2" data-name="Слой 2"><path class="cls-1" d="M88.74,29.33s-.07.07-.13.1c-1.06.54-2,1.78-3.16,2.12a1.28,1.28,0,0,1-.27.16,1.39,1.39,0,0,1-1.07.46,1.54,1.54,0,0,1-.56-.11,10.32,10.32,0,0,1-3.18-.86c-1.76-.74-3.5-.29-5.18.4a6.93,6.93,0,0,0-3.57,3.59c-.29,2.58-.38,5.06,2.12,6.78.36.23.78.34,1,.68a2,2,0,0,1-.94,2.84,2,2,0,0,1-.48,0A8.37,8.37,0,0,1,66.8,44a5.26,5.26,0,0,1-1.19-1l-1.07-.59A26.86,26.86,0,0,0,54,39.5a24.53,24.53,0,0,0-4.68.67,9.67,9.67,0,0,1-6.67,0c-2.8-2.35-3-6.51-2.19-9.88a8.74,8.74,0,0,1,1.86-2c2.13,5,9.32,1.4,9.49-3.26a10.49,10.49,0,0,1-3.2,2.47c-.9.45-3.54-.11-2.53-1.29a2.68,2.68,0,0,0,1.24-2.13c2.08,0,3.37-3.25,4.94-4.82a8.49,8.49,0,0,0-6.74-7c-2.86-4.49-9.66-3.59-13.86-2.92-1.24.17-2.08-.67-3-1.18C26.27,4.1,32.84,1.46,33.8,0c-6.74-.06-15.61,9.54-6.85,13.92-4.15.22-3.93,4.15,0,4.66-5.21,4-7.78,10.19-11.41,15C13.22,38.69,10.65,44,11.65,49.73a1.93,1.93,0,0,1,0,.5,1.65,1.65,0,0,1-.12,1,6.23,6.23,0,0,1,.16,1.25,1.27,1.27,0,0,1-2.35.64c-.13-.21-.27-.41-.4-.61A8.55,8.55,0,0,1,7,50.77a6.62,6.62,0,0,0-.92-1.14L6,49.57c-.34-.2-.69-.51-1.05-.77a5.66,5.66,0,0,0-1.84,0l-.24.12C2.18,49.4,1.66,50,1,50.57c-.19,5.36.53,11-1,15.9a26.26,26.26,0,0,1,3,8.82,6.66,6.66,0,0,0,4.38-5.44,13.88,13.88,0,0,0,.22-1.52c-2.13-.84-3.14-3.23-.9-4.18-.11-2.11-2.47-3.8-1.23-6C8.08,59.9,8.42,63.88,11.57,65c1.12.38,2-.68,2.69-1.35a7.46,7.46,0,0,0,3.31,5c-.85.94-1.46,2.09-2.42,3C13.53,79.9,2.64,81.76,1,89.69c.73.35,1.63-.07,2.3,0-.06.7-1,1.46-.5,2.06a13.8,13.8,0,0,0,5.84-2.3c2.25-3.77,5.51-6.75,8.48-10.58,4.77.45,6.51-4.65,9.71-7.07,5-1.28,10.78-.67,15.83-2.54a3.74,3.74,0,0,0,.56,1.27c4.27,0,10.27,3.1,5.5,7.64-3.82,3.07-7.91,6.48-9.32,11.23a18.23,18.23,0,0,1,2.63-.1c3.26-.29,3.59-2.15,3.54-4.65a2.21,2.21,0,0,1,2.3.36c2.58-4.18,6.23-7.71,9.43-11.15,0-1.72-2.47-2.3-2.3-4.1A15.77,15.77,0,0,1,56.81,66c11.34.63,23,13.55,14.65,24-.17.55-.62,1.14-.34,1.65,1.08.57,1.32.27,1.85-.37.32-.38.52-1.29,1.29-1.4-.11.68-.56,1.78.51,2.06a29.85,29.85,0,0,0,3.43-.69c-.45-1.77.73-5.13-.62-7.11,1.09-4.38-.68-9.51-.74-14.43a20.52,20.52,0,0,1-8.16-12.42c0-.06,0-.12,0-.17a20.79,20.79,0,0,1-.85-6.77,2.13,2.13,0,0,1,.26-1,1.41,1.41,0,0,1,1.42-1l.09,0a1.72,1.72,0,0,1,.27,0h.33l.15,0c.7,0,1.41,0,2.12,0h2.72a9.34,9.34,0,0,0,1.94-.63c.26-.12.51-.25.78-.36l1.25-1.12a6.5,6.5,0,0,0,.4-1.43c0-.13,0-.31.07-.48a7.73,7.73,0,0,0-.5-1.4,8.71,8.71,0,0,0-1.07-1,3.29,3.29,0,0,1-.43-.24,1.48,1.48,0,0,1-.24-.23l-.09-.06a8.81,8.81,0,0,1-2.89-1.89,1.38,1.38,0,0,1-.41-.49,1.37,1.37,0,0,1-.54-1.16c0-.07,0-.12,0-.19a2,2,0,0,1,.84-1.8,2.43,2.43,0,0,1,1.75-.31l.29,0h.05a2.13,2.13,0,0,1,.8.25,2.08,2.08,0,0,0,.38.23,1.4,1.4,0,0,1,.84.6,2.07,2.07,0,0,1,.16.14,3.47,3.47,0,0,0,3.05.79,7.36,7.36,0,0,0,4-3,.43.43,0,0,1,.21-.36.39.39,0,0,1,.24-.2,20.76,20.76,0,0,0,1.77-1.59,17.64,17.64,0,0,0,.9-3Z"/><path class="cls-2" d="M86.13,33.92a4.5,4.5,0,0,1,.49-.46,5.23,5.23,0,0,1-3.09,1.12,1.25,1.25,0,0,0,.9.17c.34.06.79-.45,1,0l0,.09.26-.36a2,2,0,0,1,.26-.33C86.23,33.81,86,34,86.13,33.92Z"/><path class="cls-2" d="M71.62,35.18c0,.06,0,.12,0,.18A7.56,7.56,0,0,1,73,33.14,7.52,7.52,0,0,0,71.62,35.18Z"/><path class="cls-2" d="M27.51,3.65c-.28,1-1.4,2.58-.39,3.76A5.79,5.79,0,0,0,32,10.1a3.48,3.48,0,0,1-1,3.65c-.17-.11-.45,0-.62-.17a5.81,5.81,0,0,1-6.06-3c-.84-2.86.84-5.45,3.14-7Z"/><path class="cls-2" d="M34,9.21c3,2,8.2-1.46,9.88,2.75-.45-.06-.79.17-1.18.17-.34-2.19-3.2-2.47-4.38-.9.79,1,2,2.25,3.42,1.52.39-.06.67.22,1.07.17a14.29,14.29,0,0,0-3.14,3.26.82.82,0,0,0,.39-.11c.51-.17.79-.79,1.29-1,1.46-1.52,3.81-2.75,5.78-1.52-.73.11-1.69-.05-2.24.68-1,1.63,1.85,1,2.52,2.41,1.46.17.67-1.79.45-2.41,2,.79,4.26,3.82,3.09,6,0-.51-.62-1.34-1.18-.84.56,1.79-1.29,2.69-1.63,4.26-1.74-1.23-1.57,1.18-2.75,1.69-.73-.9-1-2.3-2.08-3.2a9.37,9.37,0,0,0-3.65-1.18c-1.91.05-3.59.9-5.39,1.46A47.49,47.49,0,0,0,20.83,44,26.39,26.39,0,0,1,19,50.19a23.12,23.12,0,0,1,1-9A53.69,53.69,0,0,1,24.65,31,20.76,20.76,0,0,1,38.29,20.32c-.28-.79-1.57-1.29-1.18-2.42.56-1.62,2.58-2.64,3.15-4.32-1.35,0-4.44.45-4-2a.62.62,0,0,0-.51-.23c-1.12,1.58,1.91,2.93.84,4.78A9.41,9.41,0,0,1,29,23.35c-3.25-6,6.45-8.53,4.72-13.87.11-.05.28-.11.33-.28Z"/><path class="cls-2" d="M40.76,10.83c.62,0,.84.5,1,1.06a6.67,6.67,0,0,1-1,.28c-.34-.17-.51-.51-.79-.73.06-.45.56-.39.85-.62Z"/><path class="cls-2" d="M29.7,15.88c-.23.85-1.35,1.41-1.91,2.19-1.12-.62-3-.51-3.48-2,.17-.11.29.06.45,0,.68.56,1.63.11,2.48.17a2.75,2.75,0,0,0,2.47-.4Z"/><path class="cls-1" d="M43.4,17c1.34-.28,2.18,1.07,2.52,2.19.45.67.9,1.4,1.35,2.19.78.56.28,2-.28.78a9,9,0,0,0-2.8-3.2,6.54,6.54,0,0,0-4.15.4.71.71,0,0,1-.22-.45c.84-1.12,2.3-1.52,3.6-1.91Z"/><path class="cls-2" d="M27.34,20.09c.17,2.41-.84,4.88-1.18,7.36-5.22,7.69-9,16.39-7.86,26.27-.62,3.54-.78,7.47.39,10.83,0,.29-.05.63-.34.71a2.32,2.32,0,0,1-1.4,0c-2.25-2.33-1.85-6-2-9.24-.56-5.23,1.12-10.28,1.79-15.21a36,36,0,0,0-2.86,20.32c-.28.68-.34,1.47-1,1.95-.28.21-.68.09-1,.3C8.82,62,7.69,58.1,5.39,55.85c-1,.73-.79,2.36-1.29,3.48A5.3,5.3,0,0,1,4,64.11a7.13,7.13,0,0,1-.79,6.61c-2.13-2.2-3.09-5.93-1.12-8.8.06-3.48-.51-6.85-.51-10.38,0-.73.68-1.12,1-1.69C6.52,48,7.41,53.5,10.33,55a11.25,11.25,0,0,0,1,1.34c.39-.05.56-.33.79-.61a9.18,9.18,0,0,0,.39-3A38.93,38.93,0,0,1,13,43.39c3.31-8.53,7.13-17.29,14.31-23.3Z"/><path class="cls-2" d="M29.08,57.48c.11,0,0-.12,0,0-2.13,1.85-4.38,4-6.34,6.06-.73-.24-1.57-.44-1.79-1.31-2-13.62,3.2-29.06,15.94-36.08a11.23,11.23,0,0,1,3.82-.51c-2.53,2.7-5.61,5.28-7.64,8.65-.9,1.18-1.35,2.58-2.47,3.65-.79,1.18-1.69,2.3-2.41,3.48C31.72,38.17,34.92,34,39,31.1a9.06,9.06,0,0,1-2,3.88,17.68,17.68,0,0,1-2.3,3.09,29.38,29.38,0,0,1-4.27,4A16.23,16.23,0,0,0,35,38.79a46.27,46.27,0,0,0,3.43-3.25c-2,7.18-9.93,11.28-13.25,17.79C26.73,52,28,49.85,29.42,48.39s2.58-2.75,4-3.93c2.19-1.85,4.55-3.87,5.78-6.57.67,2-.68,4-1.74,5.62-.56,1-1.18,1.85-1.79,2.75-.79,1.24-1.8,2.36-2.64,3.48a3.94,3.94,0,0,0,2.13-1.91c2.69-1.85,3.7-6.46,7.24-6.63,1.18,3.71.51,8,1.41,12C42.1,57.82,39.47,63.08,34.47,65c.34-1.11,1.46-2.43,1.35-3.41-2.25,1.75-2.53,4.65-4,6.89-3.82,1.39-7.35,3.11-9.71,6.8-1.69,2.16-3.2,2.94-4.38,2,1.69,0,2.81-1.4,3.88-2.6,1.12-1.84,3-3.27,3.76-5.31-2.53.85-3.7,3.46-5.16,5.42a7,7,0,0,1-3.48,1.71c-2.86,3.91-6,9.69-11.5,10.47.67-4.78,6.06-6.75,9-10.27,1.63-8.47,11.62-11.56,14.82-19.24Z"/><path class="cls-2" d="M76.18,32.17a2.17,2.17,0,0,1,2.13.79,5.11,5.11,0,0,0-5.56,4.38c-.22.11-.28.28-.45.39-1.18-.78,0-2.58.68-3.42a7.45,7.45,0,0,1,3.2-2.13Z"/><path class="cls-2" d="M53.11,40.53c8.14-1,14,7.64,22,5.28,1.23-.62,1.23-2.8,2.3-3.2a3.36,3.36,0,0,1,1.4,1.4c-.79,4.83-7.35,4-10.89,2.81a2.94,2.94,0,0,0-1.24,1.8c-1.74,9,2.92,17.55,9.55,23.7-.39,3.5,2.53,6.91,0,9.92a13.16,13.16,0,0,0,0,1.52c2.41,1.71.73,4.35-1.57,4.83-.28-.3-.73-.21-1-.56,2.52-3.66.84-10.42-1.24-14.59-5.61-5.65-13.75-9.31-21.72-8.21-3.2.92-6.23,2.15-9.37,3.21-3.2.74-7,2.4-10.22,1.34a8.47,8.47,0,0,0,1.91-1.35C42.89,68,55.18,63.07,57.2,52A7.57,7.57,0,0,0,58,49.12a58.25,58.25,0,0,1-3.76,6.17c-3,5.11-8.7,8.05-14.32,9,4.77-5.32,6.79-12.5,4.15-19-.06-.61.34-1.07.39-1.68,2.42-1.69,6.06-1.41,8.65-3Z"/><path class="cls-1" d="M61,58.16c.11,0,0-.11,0,0-1.29,1.35-2.42,3.53-4.49,4.14,3.93-3.69,7-9.53,5.22-14.86-2-3.48-6.23-5.11-10-4.94-.51-.11-1.07-.06-1.46-.39,1.34-.51,2.8,0,4.21-.28,1.62-.05,3.09.68,4.66.9,2.81.51,5.11,3,6.23,5.39-.9,3.31-2.3,7.52-4.32,10Z"/><path class="cls-1" d="M5.5,53c1.29,1.57,2.81,3.37,3.14,5.44,0,.11-.17.11-.22.17a33.23,33.23,0,0,0-3.2-5.16c-.11-.28.11-.34.28-.45Z"/><path class="cls-3" d="M154.13,41a1.65,1.65,0,0,1-1.87,1.87H133.5q-6.83,0-6.83,2.73V59.91q0,2.05,3,2.86a19.74,19.74,0,0,0,4.56.36h17.91A1.64,1.64,0,0,1,154,65v.59a1.64,1.64,0,0,1-1.85,1.87H134.24a39.32,39.32,0,0,1-4.58-.18,12.67,12.67,0,0,1-4.31-1.38q-4-2.12-4-5.91V45.62A5.72,5.72,0,0,1,123.91,41,11.26,11.26,0,0,1,129,38.83a28.21,28.21,0,0,1,4.44-.27h18.85a1.64,1.64,0,0,1,1.87,1.85Z"/><path class="cls-3" d="M198.69,64.78a3.56,3.56,0,0,1,.07.7,2.45,2.45,0,0,1-.79,1.89,2.82,2.82,0,0,1-2,.72,2.76,2.76,0,0,1-2.23-1.45l-4.67-6.8H166.85l-4.67,6.81a2.2,2.2,0,0,1-.43.61,1.67,1.67,0,0,1-1.2.47,2.5,2.5,0,0,1-2.23-1.08,1.63,1.63,0,0,1-.32-.9,1.07,1.07,0,0,1,.09-.47L174.77,39.8A3.42,3.42,0,0,1,178,38.24q2.55.09,3,1.56ZM186,55.49l-8-11.8-8.05,11.8Z"/><path class="cls-3" d="M238.56,64.36a3.11,3.11,0,0,1-1,2.73,4.44,4.44,0,0,1-2.46.52,2.92,2.92,0,0,1-1.6-.66q-.14-.09-.81-.66l-24.6-20.94V65.59a1.66,1.66,0,0,1-1.87,1.87h-1.56a1.65,1.65,0,0,1-1.85-1.87V40.45q0-1,1.35-1.76a2.6,2.6,0,0,1,1.35-.36,4.93,4.93,0,0,1,2.41.77,7.14,7.14,0,0,1,1.11.77l24.29,20.68V40.41a1.64,1.64,0,0,1,1.87-1.85h1.53a1.64,1.64,0,0,1,1.87,1.85Z"/><path class="cls-3" d="M283.6,64.78a3.56,3.56,0,0,1,.07.7,2.45,2.45,0,0,1-.79,1.89,2.82,2.82,0,0,1-2,.72,2.76,2.76,0,0,1-2.23-1.45L274,59.84H251.76l-4.67,6.81a2.2,2.2,0,0,1-.43.61,1.67,1.67,0,0,1-1.2.47,2.5,2.5,0,0,1-2.23-1.08,1.64,1.64,0,0,1-.32-.9,1.07,1.07,0,0,1,.09-.47L259.67,39.8a3.42,3.42,0,0,1,3.23-1.56q2.55.09,3,1.56Zm-12.7-9.29-8-11.8-8.05,11.8Z"/><path class="cls-3" d="M323.33,41.47,306.24,65.78A4.24,4.24,0,0,1,305,67.06a3.91,3.91,0,0,1-4.31-.38,4.26,4.26,0,0,1-.77-.88L282.81,41.47a2.54,2.54,0,0,1-.54-1.44q0-1.47,2.05-1.47h.59q2,0,2.53.79L303.1,61.73l15.58-22.39q.56-.78,2.48-.78h.38l.25,0q2.06.18,2.05,1.48A2.48,2.48,0,0,1,323.33,41.47Z"/><path class="cls-3" d="M363.2,64.78a3.56,3.56,0,0,1,.07.7,2.45,2.45,0,0,1-.79,1.89,2.82,2.82,0,0,1-2,.72,2.76,2.76,0,0,1-2.23-1.45l-4.67-6.8H331.36l-4.67,6.81a2.2,2.2,0,0,1-.43.61,1.67,1.67,0,0,1-1.2.47,2.5,2.5,0,0,1-2.23-1.08,1.64,1.64,0,0,1-.32-.9,1.07,1.07,0,0,1,.09-.47L339.27,39.8a3.42,3.42,0,0,1,3.23-1.56q2.55.09,3,1.56Zm-12.7-9.29-8-11.8-8.05,11.8Z"/><path class="cls-3" d="M403,49.36q0,3.68-3.73,5.52a18,18,0,0,1-8,1.53h-8.7l17.64,7.47a1.93,1.93,0,0,1,1.4,1.82q0,1.78-2.12,1.75a22.54,22.54,0,0,1-2.93-.16L372.56,57v8.57a1.66,1.66,0,0,1-1.87,1.87h-1.56a1.64,1.64,0,0,1-1.85-1.87V40.41a1.63,1.63,0,0,1,1.85-1.85h21.22a21.87,21.87,0,0,1,8.12,1.29q4.53,1.83,4.53,6Zm-5.28,0V45.75q0-2.89-7.4-2.89H372.56v9.25h18.72Q397.72,52.11,397.72,49.4Z"/><path class="cls-3" d="M447,64.78a3.56,3.56,0,0,1,.07.7,2.45,2.45,0,0,1-.79,1.89,2.82,2.82,0,0,1-2,.72,2.76,2.76,0,0,1-2.23-1.45l-4.67-6.8H415.18l-4.67,6.81a2.2,2.2,0,0,1-.43.61,1.67,1.67,0,0,1-1.2.47,2.5,2.5,0,0,1-2.23-1.08,1.63,1.63,0,0,1-.32-.9,1.07,1.07,0,0,1,.09-.47L423.09,39.8a3.42,3.42,0,0,1,3.23-1.56q2.55.09,3,1.56Zm-12.7-9.29-8-11.8-8.05,11.8Z"/><path class="cls-3" d="M258,84.5h-3.65a2,2,0,0,0-.13-.77,1.78,1.78,0,0,0-.32-.5,1.59,1.59,0,0,0-1.24-.42,2.24,2.24,0,0,0-1.6.55,3,3,0,0,0-.68,1.09l-.2.89,0,.69a3.48,3.48,0,0,0,.65,2.31,5.23,5.23,0,0,0,.53.51,2,2,0,0,0,1.24.35,2.15,2.15,0,0,0,1.48-.55,2,2,0,0,0,.5-.81h-2.08v-2.3H258v6.13h-2.77v-.49l-.51.19q-.61.21-1.19.35a5.82,5.82,0,0,1-1.33.19,7.75,7.75,0,0,1-2.3-.33l-.36-.12a4,4,0,0,1-1.1-.67,5.69,5.69,0,0,1-.95-1.07,6.31,6.31,0,0,1-.9-3.75A6.09,6.09,0,0,1,248,81.72a4.65,4.65,0,0,1,1.91-1.24,8.2,8.2,0,0,1,1.24-.32,8.29,8.29,0,0,1,1.43-.11,8.15,8.15,0,0,1,1.69.15,5,5,0,0,1,.71.18l.3.13.3.17a4.93,4.93,0,0,1,1.5,1.4l.38.68a3.28,3.28,0,0,1,.23.59Z"/><path class="cls-3" d="M270.79,91.6h-3.53a2.42,2.42,0,0,1-.32-.56l-.15-.47-.07-.67,0-.91v-.36a.59.59,0,0,0-.09-.3,1.56,1.56,0,0,0-.21-.32.49.49,0,0,0-.36-.23l-.73-.06h-1.42V91.6h-3.39V80.36h6a3.7,3.7,0,0,1,3,1,3.36,3.36,0,0,1,.87,2.31,3,3,0,0,1-.5,1.82,2.56,2.56,0,0,1-.52.52l-.33.26.39.3a1.42,1.42,0,0,1,.3.35,3.2,3.2,0,0,1,.4,1.29v1.4c0,.18,0,.31,0,.37a1.74,1.74,0,0,0,0,.24l.13.44Zm-3.87-7.48a.93.93,0,0,0-.33-.78,2.21,2.21,0,0,0-1-.21h-1.69v2h1.77a1.81,1.81,0,0,0,1-.25A.73.73,0,0,0,266.92,84.12Z"/><path class="cls-3" d="M283.95,86a6.8,6.8,0,0,1-1.32,4.07,3.89,3.89,0,0,1-1.92,1.37,8.48,8.48,0,0,1-1.33.35,8.23,8.23,0,0,1-1.46.13,7.09,7.09,0,0,1-2.66-.48,4.38,4.38,0,0,1-1.9-1.39,6.76,6.76,0,0,1-1.3-4.06,9.14,9.14,0,0,1,.06-1.16,5.61,5.61,0,0,1,.24-1,6,6,0,0,1,1-1.91,4.37,4.37,0,0,1,1.9-1.38,7,7,0,0,1,1.27-.37,7.5,7.5,0,0,1,1.4-.13,9.06,9.06,0,0,1,1.46.11,6.82,6.82,0,0,1,1.31.35,4,4,0,0,1,1.94,1.39A6.82,6.82,0,0,1,283.95,86Zm-3.64,0a6.58,6.58,0,0,0-.1-1.27,2.27,2.27,0,0,0-.34-.84,2.23,2.23,0,0,0-.92-.87l-.42-.13-.3,0h-.67L277,83a2.33,2.33,0,0,0-1.23,1.72,8.08,8.08,0,0,0-.09,1.27v.59a2.79,2.79,0,0,0,.1.69,3.72,3.72,0,0,0,.24.69l.07.14.1.15a2.25,2.25,0,0,0,.27.36,1.63,1.63,0,0,0,.61.41,3.4,3.4,0,0,0,.44.11,2.52,2.52,0,0,0,.44,0,1.88,1.88,0,0,0,1.37-.47,3,3,0,0,0,.72-1.13l.1-.45.08-.46Z"/><path class="cls-3" d="M296.06,88.15a2.75,2.75,0,0,1-.09.62l-.27.72a2.58,2.58,0,0,1-.2.4,2,2,0,0,1-.33.42,5.31,5.31,0,0,1-.92.8,5.72,5.72,0,0,1-3.31.78,7.33,7.33,0,0,1-2-.26,3,3,0,0,1-1.46-.71,4.23,4.23,0,0,1-1.37-2l-.07-.35-.09-.52,0-.76V80.36h3.44v7a2.07,2.07,0,0,0,0,.26c0,.06,0,.18.06.36a1.34,1.34,0,0,0,.28.59,1.9,1.9,0,0,0,2.64,0,3,3,0,0,0,.38-1.7v-6.5h3.44v6.89Z"/><path class="cls-3" d="M308.54,84.12a3.43,3.43,0,0,1-.79,2.5,4,4,0,0,1-.75.67,4.92,4.92,0,0,1-.89.44l-.59.15-.55,0-.83.07h-2.06V91.6h-3.44V80.36h6a4.75,4.75,0,0,1,2.64.81,2.4,2.4,0,0,1,1,1.13A4.56,4.56,0,0,1,308.54,84.12Zm-3.35,0a1.71,1.71,0,0,0-.09-.58.68.68,0,0,0-.3-.38,2.16,2.16,0,0,0-1.26-.27h-1.47v2.54h1.47a2.36,2.36,0,0,0,1.19-.27A1.11,1.11,0,0,0,305.19,84.07Z"/></g></g></svg>