<?xml version="1.0" encoding="utf-8"?>
<!DOCTYPE svg PUBLIC "-//W3C//DTD SVG 1.1//EN" "http://www.w3.org/Graphics/SVG/1.1/DTD/svg11.dtd">
<svg xmlns="http://www.w3.org/2000/svg" xmlns:xlink="http://www.w3.org/1999/xlink" version="1.1" viewBox="0 0 512 512" enable-background="new 0 0 512 512" width="512px" height="512px">
  <g>
    <g>
      <path d="m251.1,57.4l110.1,86h64.4c-1.2-1.8-162.1-128-162.1-128-7.4-5.8-17.8-5.8-25.2,0.1l-161.8,127.8h65.9l108.7-85.9v-7.10543e-15z" fill="#FFFFFF"/>
      <path d="m375.4,392.5c0,11.3-9.1,20.4-20.4,20.4-11.3,0-20.4-9.1-20.4-20.4v-99.8c0-11.3 9.1-20.4 20.4-20.4 11.3,0 20.4,9.1 20.4,20.4v99.8zm-99,0c0,11.3-9.1,20.4-20.4,20.4-11.3,0-20.4-9.1-20.4-20.4v-99.8c0-11.3 9.1-20.4 20.4-20.4 11.3,0 20.4,9.1 20.4,20.4v99.8zm-99,0c0,11.3-9.1,20.4-20.4,20.4-11.3,0-20.4-9.1-20.4-20.4v-99.8c0-11.3 9.1-20.4 20.4-20.4 11.3,0 20.4,9.1 20.4,20.4v99.8zm-166.4-208.3v316.8h490v-316.8h-490z" fill="#FFFFFF"/>
    </g>
  </g>
</svg>
