<?xml version="1.0" encoding="iso-8859-1"?>
<!-- Generator: Adobe Illustrator 18.0.0, SVG Export Plug-In . SVG Version: 6.00 Build 0)  -->
<!DOCTYPE svg PUBLIC "-//W3C//DTD SVG 1.1//EN" "http://www.w3.org/Graphics/SVG/1.1/DTD/svg11.dtd">
<svg xmlns="http://www.w3.org/2000/svg" xmlns:xlink="http://www.w3.org/1999/xlink" version="1.1" id="Capa_1" x="0px" y="0px" viewBox="0 0 395 395" style="enable-background:new 0 0 395 395;" xml:space="preserve" width="512px" height="512px">

	<path d="M227.644,269.269l70.296-89.853c-9.782-2.433-19.997-2.816-29.658-2.816c-22.405,0-40.682,8.58-54.323,25.502   c-10.736,13.317-16.518,29.148-21.164,41.868c-2.053,5.621-4.864,13.319-6.453,15.237c-6.246,7.01-13.038,6.708-14.373,6.573   c-7.881-1.979-16.123,2.314-18.913,10.122c-2.969,8.307,1.358,17.448,9.666,20.417c6.562,2.344,29.366,4.464,47.474-15.863   c5.564-6.247,8.828-15.181,12.606-25.526c1.609-4.407,3.198-8.601,4.84-12.541V269.269z" fill="#ffffff"/>
	<path d="M330.491,201.197c-4.451-6.278-9.543-10.958-15.038-14.454l-74.438,95.147h71.818v-42.182   c3.835,14.311,6.648,34.653,8.739,62.492c0.63,8.39,7.632,14.777,15.911,14.777c0.401,0,0.807-0.015,1.213-0.045   c8.796-0.661,15.392-8.328,14.732-17.124C349.423,246.477,342.993,218.83,330.491,201.197z" fill="#ffffff"/>
	<rect x="227.644" y="300.201" width="85.189" height="25.025" fill="#ffffff"/>
	<polygon points="318.638,93.596 318.638,64.299 204.197,64.299 217.93,93.596  " fill="#ffffff"/>
	<path d="M217.93,119.222c0,27.804,22.549,50.335,50.351,50.335c27.801,0,50.357-22.531,50.357-50.335v-15.859H217.93V119.222z" fill="#ffffff"/>
	<path d="M81.897,325.624c0,2.803,2.272,5.077,5.077,5.077h97.232c2.804,0,5.078-2.274,5.078-5.077v-18.227H81.897V325.624z" fill="#ffffff"/>
	<path d="M57.5,203.954l0,97.231c0,2.807,2.274,5.079,5.078,5.079h18.226V198.876H62.578C59.775,198.876,57.5,201.149,57.5,203.954z   " fill="#ffffff"/>
</svg>
