<?xml version="1.0" encoding="iso-8859-1"?>
<!-- Generator: Adobe Illustrator 17.1.0, SVG Export Plug-In . SVG Version: 6.00 Build 0)  -->
<!DOCTYPE svg PUBLIC "-//W3C//DTD SVG 1.1//EN" "http://www.w3.org/Graphics/SVG/1.1/DTD/svg11.dtd">
<svg xmlns="http://www.w3.org/2000/svg" xmlns:xlink="http://www.w3.org/1999/xlink" version="1.1" id="Capa_1" x="0px" y="0px" viewBox="0 0 442 442" style="enable-background:new 0 0 442 442;" xml:space="preserve" width="512px" height="512px">
<g>
	<path d="M365.906,42.416h-89.929C269.578,18.038,247.358,0,221,0s-48.578,18.038-54.977,42.416H76.094c-11.8,0-21.4,9.6-21.4,21.4   V420.6c0,11.8,9.601,21.4,21.4,21.4h289.813c11.8,0,21.4-9.6,21.4-21.4V63.816C387.307,52.016,377.706,42.416,365.906,42.416z    M221,20c20.312,0,36.836,16.525,36.836,36.836v25.431c0,5.523,4.478,10,10,10c12.246,0,22.718,7.74,26.78,18.585H147.384   c4.063-10.845,14.534-18.585,26.78-18.585c5.522,0,10-4.477,10-10V56.836C184.164,36.525,200.688,20,221,20z M135.579,130.852   h170.842c5.522,0,10-4.477,10-10c0-7.246-1.597-14.125-4.454-20.308h20.261v286.378H109.771V100.544h20.261   c-2.856,6.183-4.454,13.062-4.454,20.308C125.579,126.375,130.057,130.852,135.579,130.852z M367.307,420.6   c0,0.772-0.628,1.4-1.4,1.4H76.094c-0.772,0-1.4-0.628-1.4-1.4V63.816c0-0.772,0.628-1.4,1.4-1.4h88.07v10.886   c-6.216,1.306-11.997,3.804-17.095,7.243H99.771c-5.522,0-10,4.477-10,10v306.378c0,5.523,4.478,10,10,10h242.457   c5.522,0,10-4.477,10-10V90.544c0-5.523-4.478-10-10-10h-47.297c-5.098-3.438-10.88-5.937-17.095-7.243V62.416h88.07   c0.772,0,1.4,0.628,1.4,1.4V420.6z" fill="#FFFFFF"/>
	<path d="M221,72.336c8.547,0,15.5-6.953,15.5-15.5s-6.953-15.5-15.5-15.5s-15.5,6.953-15.5,15.5S212.453,72.336,221,72.336z    M221,52.336c2.481,0,4.5,2.019,4.5,4.5s-2.019,4.5-4.5,4.5s-4.5-2.019-4.5-4.5S218.519,52.336,221,52.336z" fill="#FFFFFF"/>
</g>
</svg>
