<?xml version="1.0" encoding="iso-8859-1"?>
<!-- Generator: Adobe Illustrator 17.1.0, SVG Export Plug-In . SVG Version: 6.00 Build 0)  -->
<!DOCTYPE svg PUBLIC "-//W3C//DTD SVG 1.1//EN" "http://www.w3.org/Graphics/SVG/1.1/DTD/svg11.dtd">
<svg version="1.1" id="Capa_1" xmlns="http://www.w3.org/2000/svg" xmlns:xlink="http://www.w3.org/1999/xlink" x="0px" y="0px"
	 viewBox="0 0 409.453 409.453" style="enable-background:new 0 0 409.453 409.453;" xml:space="preserve">
<g>
	<path stroke="#ffffff" fill='#ffffff' d="M128.013,295.16h-105.4c-6.065,0-11,4.935-11,11v92.293c0,6.065,4.935,11,11,11h105.4c6.066,0,11-4.935,11-11V306.16
		C139.013,300.095,134.079,295.16,128.013,295.16z"/>
	<path stroke="#ffffff" fill='#ffffff' d="M211.613,295.16h-39.076c-6.065,0-11,4.935-11,11v92.293c0,6.065,4.935,11,11,11h39.076c6.065,0,11-4.935,11-11V306.16
		C222.613,300.095,217.679,295.16,211.613,295.16z"/>
	<path stroke="#ffffff" fill='#ffffff' d="M385.84,365.181h-29.724c-1.084,0-2-0.916-2-2V131.358h5.705c6.065,0,11-4.935,11-11v-51.87c0-6.065-4.935-11-11-11
		h-68.703L107.412,0.524C106.29,0.177,105.157,0,104.043,0c-5.586,0-9.799,4.396-9.799,10.226v22.748
		c0,6.046,4.327,12.045,10.064,13.953l3.733,1.241v103.506c-0.503,0.266-0.986,0.577-1.437,0.939l-44.974,36.175h-0.416
		c-6.065,0-11,4.935-11,11v65.676c0,6.065,4.935,11,11,11h102.295c6.065,0,11-4.935,11-11v-65.676c0-6.065-4.935-11-11-11h-0.376
		l-44.652-36.155c-0.452-0.366-0.936-0.679-1.441-0.947V51.161l162.221,53.937v15.26c0,6.065,4.935,11,11,11h7.67v231.822
		c0,1.084-0.916,2-2,2h-31.688c-6.617,0-12,5.383-12,12v17.205c0,6.617,5.383,12,12,12H385.84c6.617,0,12-5.383,12-12v-17.205
		C397.84,370.563,392.457,365.181,385.84,365.181z M148.835,188.789H75.991l36.229-29.143c0.135-0.074,0.492-0.074,0.6-0.018
		L148.835,188.789z"/>
</g>
<g>
</g>
<g>
</g>
<g>
</g>
<g>
</g>
<g>
</g>
<g>
</g>
<g>
</g>
<g>
</g>
<g>
</g>
<g>
</g>
<g>
</g>
<g>
</g>
<g>
</g>
<g>
</g>
<g>
</g>
</svg>
