<?xml version="1.0" encoding="iso-8859-1"?>
<!-- Generator: Adobe Illustrator 18.1.1, SVG Export Plug-In . SVG Version: 6.00 Build 0)  -->
<svg xmlns="http://www.w3.org/2000/svg" xmlns:xlink="http://www.w3.org/1999/xlink" version="1.1" id="Capa_1" x="0px" y="0px" viewBox="0 0 495.689 495.689" style="enable-background:new 0 0 495.689 495.689;" xml:space="preserve" width="512px" height="512px">
<g>
	<g>
		<path d="M471.466,165.23h-3.902C430.954,82.733,348.31,25.02,252.393,25.02    c-35.343,0-68.857,7.877-98.965,21.898l0.358,17.818l0.268,13.185c1.398,0.919,2.642,2.008,3.983,2.983    c6.267-3.308,12.729-6.283,19.362-8.933c-3.625,5.048-7.072,10.494-10.364,16.249c8.787,8.031,16.16,17.387,21.736,27.783    c13.388-27.718,30.149-46.471,47.373-53.844v103.07h-35.018c-0.35,3.625-1.837,7.056-4.381,9.706    c-2.983,3.113-7.088,4.902-11.396,4.991l-17.468,0.35l-33.091,0.667l-8.185,0.163c0.008,0.146,0.008,0.285,0.016,0.431    l0.211,10.567l0.114,5.641h5.097c-2.211,15.501-3.617,31.677-4.129,48.389l0.91,45.195l0.033,1.569    c0.732,10.266,1.796,20.305,3.195,30.076h-2.585l0.024,1.398c0.073,3.495-0.992,6.926-3.024,9.771l-0.854,1.203l-12.299,17.233    c-0.78,1.097-1.699,2.057-2.699,2.91h27.458c8.624,37.367,22.215,69.402,39.334,93.259    c-44.691-17.858-81.595-51.137-104.062-93.259h16.233c-0.845-0.715-1.642-1.496-2.341-2.39L76.54,339.311l-3.186-4.105    c-2.146-2.764-3.341-6.145-3.414-9.641l-0.049-2.593H59.518c-6.422-19.736-9.933-40.765-9.933-62.614    c0-21.841,3.512-42.878,9.933-62.606h7.86l-0.301-15.013c0-0.146,0-0.285,0-0.431l-1.861,0.041l-17.696,0.349l-14.217,0.285    l-3.146,0.065c-8.454,24.231-13.111,50.226-13.111,77.303c0,30.263,5.804,59.176,16.257,85.781v9.348h3.902    c36.619,82.497,119.262,140.21,215.18,140.21s178.56-57.713,215.18-140.21h3.902v-9.348    c10.453-26.597,16.257-55.518,16.257-85.781s-5.804-59.176-16.257-85.781V165.23z M268.65,197.744h71.369    c2.943,19.346,4.576,40.293,4.576,62.606c0,22.321-1.642,43.268-4.576,62.614H268.65V197.744z M431.449,165.23h-64.728    c-8.624-37.367-22.207-69.402-39.326-93.259C372.078,89.829,408.982,123.107,431.449,165.23z M333.484,355.479    c-13.827,54.803-38.806,91.926-64.842,103.07v-103.07H333.484z M327.387,448.746c17.119-23.857,30.71-55.892,39.326-93.259h64.736    C408.982,397.609,372.078,430.888,327.387,448.746z M372.745,322.965c2.829-19.874,4.365-40.838,4.365-62.614    c0-21.776-1.536-42.74-4.365-62.606h72.531c6.422,19.728,9.933,40.765,9.933,62.606c0,21.85-3.512,42.878-9.933,62.614H372.745z     M268.65,62.159c26.036,11.136,51.015,48.267,64.842,103.07H268.65V62.159z M160.183,260.35c0-22.313,1.642-43.26,4.576-62.606    h71.369v125.221h-71.369C161.825,303.619,160.183,282.671,160.183,260.35z M171.294,355.479h64.842v103.07    C210.1,447.413,185.121,410.29,171.294,355.479z" fill="#FFFFFF"/>
		<polygon points="111.566,242.126 111.232,225.633 110.671,197.744 110.566,192.428 110.354,181.869     83.311,182.405 83.62,197.744 83.66,199.857 84.351,234.331 85.148,273.917 86.042,318.51 86.131,322.965 86.18,325.241     89.366,329.345 100.064,343.123 112.362,325.891 113.224,324.696 113.183,322.965 112.557,291.653   " fill="#FFFFFF"/>
		<path d="M36.563,166.66l17.932-0.358l18.476-0.374l34.636-0.699l30.596-0.618l33.417-0.675l13.388-0.268    c-0.187-9.494-2.016-18.541-4.958-27.052c-4.398-12.729-11.591-24.085-20.874-33.417c-5.015-5.04-10.624-9.437-16.72-13.16    c-1.504-0.919-2.926-1.951-4.487-2.772l-0.276-13.583l-0.374-18.509l-0.626-31.165l23.004-0.463    C159.427,10.283,131.562,0,96.739,0c-1.187,0-2.382,0.008-3.577,0.033C56.706,0.772,27.37,12.486,27.646,26.207l23.004-0.463    L51.918,89c-26.816,15.672-44.601,44.975-43.935,78.229l25.329-0.512L36.563,166.66z" fill="#FFFFFF"/>
	</g>
</g>
<g>
</g>
<g>
</g>
<g>
</g>
<g>
</g>
<g>
</g>
<g>
</g>
<g>
</g>
<g>
</g>
<g>
</g>
<g>
</g>
<g>
</g>
<g>
</g>
<g>
</g>
<g>
</g>
<g>
</g>
</svg>
