<?xml version="1.0" encoding="iso-8859-1"?>
<!-- Generator: Adobe Illustrator 16.0.0, SVG Export Plug-In . SVG Version: 6.00 Build 0)  -->
<!DOCTYPE svg PUBLIC "-//W3C//DTD SVG 1.1//EN" "http://www.w3.org/Graphics/SVG/1.1/DTD/svg11.dtd">
<svg xmlns="http://www.w3.org/2000/svg" xmlns:xlink="http://www.w3.org/1999/xlink" version="1.1" id="Capa_1" x="0px" y="0px" width="512px" height="512px" viewBox="0 0 31.557 31.557" style="enable-background:new 0 0 31.557 31.557;" xml:space="preserve">
<g>
	<g>
		<path d="M9.008,1.803H22.31l0.002,4.658c0.002,0.002,1.765,1.91,1.765,1.91V1.283C24.076,0.576,23.522,0,22.815,0H8.489    C7.782,0,7.208,0.576,7.208,1.283v2.102h1.801L9.008,1.803L9.008,1.803z" fill="#FFFFFF"/>
		<path d="M9.173,6.879h8.341l-0.012,3.279c-0.002,0.361,0.141,0.703,0.396,0.959c0.255,0.256,0.595,0.398,0.955,0.398h3.365v7.976    h1.967v-7.742c0-0.869-0.351-1.705-0.967-2.32l-3.539-3.549c-0.617-0.617-1.455-0.965-2.328-0.965h-8.75    c-0.771,0-1.395,0.629-1.395,1.398V19.49h1.966V6.879z M19.437,8.348l1.254,1.24l-1.254-0.002V8.348z" fill="#FFFFFF"/>
		<path d="M11.458,10.975h2.674c0.532,0,0.964-0.451,0.964-0.984c0-0.533-0.432-0.983-0.964-0.983h-2.674    c-0.532,0-0.964,0.449-0.964,0.982C10.494,10.523,10.926,10.975,11.458,10.975z" fill="#FFFFFF"/>
		<path d="M19.981,12.721h-8.522c-0.532,0-0.964,0.424-0.964,0.955c0,0.533,0.432,0.955,0.964,0.955h8.522    c0.531,0,0.964-0.422,0.964-0.955C20.945,13.145,20.513,12.721,19.981,12.721z" fill="#FFFFFF"/>
		<path d="M19.981,16.379h-8.522c-0.532,0-0.964,0.451-0.964,0.98c0,0.532,0.432,0.983,0.964,0.983h8.522    c0.531,0,0.964-0.451,0.964-0.983C20.945,16.83,20.513,16.379,19.981,16.379z" fill="#FFFFFF"/>
		<path d="M25.44,14.84v3.738l0.625,1.021c0.137,0.222,0.142,0.499,0.015,0.726c-0.127,0.228-0.366,0.367-0.626,0.367H6.068    c-0.26,0-0.499-0.141-0.626-0.365C5.315,20.099,5.32,19.822,5.456,19.6l0.496-0.812v-3.738l-2.891,4.68    c-0.394,0.637-0.603,1.372-0.603,2.121v7.156c0,1.408,1.143,2.551,2.552,2.551h21.538c1.407,0,2.551-1.143,2.551-2.551V21.85    c0-0.757-0.213-1.498-0.615-2.141L25.44,14.84z" fill="#FFFFFF"/>
	</g>
</g>
<g>
</g>
<g>
</g>
<g>
</g>
<g>
</g>
<g>
</g>
<g>
</g>
<g>
</g>
<g>
</g>
<g>
</g>
<g>
</g>
<g>
</g>
<g>
</g>
<g>
</g>
<g>
</g>
<g>
</g>
</svg>
